<!DOCTYPE svg PUBLIC "-//W3C//DTD SVG 20010904//EN" "http://www.w3.org/TR/2001/REC-SVG-20010904/DTD/svg10.dtd">
<svg version="1.0" xmlns="http://www.w3.org/2000/svg" width="200px" height="200px" viewBox="0 0 2000 2000" preserveAspectRatio="xMidYMid meet">
<g id="layer101" fill="#3a3a3a" stroke="none">
 <path d="M170 1114 c0 -25 -10 -48 -35 -81 -32 -42 -35 -51 -35 -115 l0 -69 48 3 47 3 3 50 c6 93 49 95 54 2 l3 -52 48 -3 47 -3 0 67 c0 63 -3 71 -40 120 -26 35 -40 64 -40 84 0 29 -1 30 -50 30 l-50 0 0 -36z"/>
 <path d="M370 1073 c1 -61 7 -94 28 -148 l28 -70 74 0 74 0 28 70 c21 54 27 87 28 148 l0 77 -50 0 -50 0 0 -35 c0 -32 -2 -35 -30 -35 -28 0 -30 3 -30 35 l0 35 -50 0 -50 0 0 -77z m145 -100 c-9 -36 -14 -41 -25 -23 -17 26 -11 50 11 50 18 0 20 -4 14 -27z"/>
 <path d="M670 1000 l0 -150 93 0 c122 0 140 11 135 85 -2 42 1 56 15 64 13 9 17 25 17 81 l0 70 -50 0 -50 0 0 -45 c0 -43 -1 -45 -30 -45 -29 0 -30 2 -30 45 l0 45 -50 0 -50 0 0 -150z m129 -29 c17 -11 7 -41 -14 -41 -9 0 -15 9 -15 25 0 27 6 30 29 16z"/>
 <path d="M970 1000 l0 -152 104 4 c143 4 146 7 146 148 0 141 -3 144 -146 148 l-104 4 0 -152z m150 0 c0 -57 -1 -60 -25 -60 -24 0 -25 3 -25 60 0 57 1 60 25 60 24 0 25 -3 25 -60z"/>
 <path d="M1477 1144 c-4 -4 -7 -52 -7 -106 l0 -98 -35 0 c-35 0 -35 0 -35 -45 l0 -45 125 0 125 0 0 45 c0 45 0 45 -35 45 l-34 0 -3 103 -3 102 -45 3 c-25 2 -49 0 -53 -4z"/>
 <path d="M1672 1108 l3 -43 65 -5 c49 -4 59 -7 40 -12 -14 -4 -35 -8 -47 -8 -39 0 -63 -34 -63 -89 0 -80 19 -95 129 -99 l91 -4 0 46 0 45 -62 3 c-61 3 -62 3 -23 11 83 16 90 24 90 102 0 64 -2 70 -25 82 -14 7 -62 13 -113 13 l-88 0 3 -42z"/>
 <path d="M1257 1044 c-4 -4 -7 -24 -7 -45 0 -45 15 -52 96 -47 l49 3 0 45 0 45 -65 3 c-36 2 -69 0 -73 -4z"/>
 </g>

</svg>