<!DOCTYPE svg PUBLIC "-//W3C//DTD SVG 20010904//EN" "http://www.w3.org/TR/2001/REC-SVG-20010904/DTD/svg10.dtd">
<svg version="1.0" xmlns="http://www.w3.org/2000/svg" width="200px" height="200px" viewBox="0 0 2000 2000" preserveAspectRatio="xMidYMid meet">
<g id="layer101" fill="#3a3a3a" stroke="none">
 <path d="M233 1233 c-8 -3 -13 -24 -13 -52 0 -42 -6 -56 -48 -112 -70 -92 -72 -98 -72 -203 l0 -96 75 0 75 0 0 71 c0 55 5 79 21 105 11 19 24 34 28 34 4 0 17 -17 29 -39 16 -29 22 -55 22 -105 l0 -66 75 0 75 0 0 91 c0 100 -2 106 -71 200 -41 56 -49 73 -49 111 0 24 -5 49 -12 56 -12 12 -110 16 -135 5z"/>
 <path d="M553 1233 c-10 -3 -13 -38 -13 -123 0 -115 1 -123 42 -230 l41 -110 117 0 117 0 39 98 c38 96 39 99 39 232 l0 135 -49 3 c-87 6 -96 0 -96 -63 l0 -55 -50 0 -50 0 0 48 c0 26 -5 53 -12 60 -12 12 -100 15 -125 5z m227 -235 c-1 -22 -30 -93 -38 -96 -12 -4 -25 24 -38 73 -6 24 -4 25 35 25 23 0 41 -1 41 -2z"/>
 <path d="M1022 1227 c-9 -11 -12 -71 -10 -233 l3 -219 158 -3 c236 -4 247 6 247 228 0 218 -14 231 -240 238 -121 4 -148 2 -158 -11z m232 -133 c12 -11 16 -35 16 -89 0 -99 -3 -105 -56 -105 l-44 0 0 105 0 105 34 0 c19 0 42 -7 50 -16z"/>
 <path d="M1503 1233 c-10 -3 -13 -60 -13 -234 l0 -229 150 0 c160 0 191 7 209 47 15 32 14 140 0 149 -8 4 -3 12 14 21 32 16 47 64 47 151 0 90 -9 102 -75 102 -83 0 -85 -2 -85 -81 l0 -69 -50 0 -50 0 0 63 c0 36 -5 68 -12 75 -12 12 -110 16 -135 5z m205 -305 c-2 -28 -8 -34 -30 -36 -26 -3 -28 -1 -28 32 0 33 2 36 31 36 28 0 30 -2 27 -32z"/>
 </g>

</svg>